<?xml version="1.0" encoding="UTF-8" standalone="no"?>
<svg
   xmlns:dc="http://purl.org/dc/elements/1.1/"
   xmlns:cc="http://creativecommons.org/ns#"
   xmlns:rdf="http://www.w3.org/1999/02/22-rdf-syntax-ns#"
   xmlns:svg="http://www.w3.org/2000/svg"
   xmlns="http://www.w3.org/2000/svg"
   xmlns:sodipodi="http://sodipodi.sourceforge.net/DTD/sodipodi-0.dtd"
   xmlns:inkscape="http://www.inkscape.org/namespaces/inkscape"
   version="1.1"
   id="svg2"
   viewBox="0 0 744.09448819 1052.3622047"
   height="297mm"
   width="210mm"
   inkscape:version="0.91 r13725"
   sodipodi:docname="panel.svg">
  <sodipodi:namedview
     pagecolor="#ffffff"
     bordercolor="#666666"
     borderopacity="1"
     objecttolerance="10"
     gridtolerance="10"
     guidetolerance="10"
     inkscape:pageopacity="0"
     inkscape:pageshadow="2"
     inkscape:window-width="1440"
     inkscape:window-height="816"
     id="namedview8"
     showgrid="false"
     inkscape:zoom="1"
     inkscape:cx="404.75294"
     inkscape:cy="538.23636"
     inkscape:window-x="0"
     inkscape:window-y="1"
     inkscape:window-maximized="1"
     inkscape:current-layer="svg2">
    <inkscape:grid
       type="xygrid"
       id="grid4136" />
  </sodipodi:namedview>
  <defs
     id="defs4" />
  <metadata
     id="metadata7">
    <rdf:RDF>
      <cc:Work
         rdf:about="">
        <dc:format>image/svg+xml</dc:format>
        <dc:type
           rdf:resource="http://purl.org/dc/dcmitype/StillImage" />
        <dc:title />
      </cc:Work>
    </rdf:RDF>
  </metadata>
  <rect
     style="color:#000000;display:inline;overflow:visible;visibility:visible;opacity:1;fill:#0000ff;fill-opacity:1;fill-rule:nonzero;stroke:none;stroke-width:2;stroke-linecap:round;stroke-linejoin:round;stroke-miterlimit:4;stroke-dasharray:none;stroke-dashoffset:0;stroke-opacity:1;marker:none;enable-background:accumulate"
     id="rect4138"
     width="300"
     height="100"
     x="240"
     y="362.36221"
     ry="20" />
  <path
     inkscape:connector-curvature="0"
     style="color:#000000;font-style:normal;font-variant:normal;font-weight:normal;font-stretch:normal;font-size:medium;line-height:normal;font-family:sans-serif;text-indent:0;text-align:start;text-decoration:none;text-decoration-line:none;text-decoration-style:solid;text-decoration-color:#000000;letter-spacing:normal;word-spacing:normal;text-transform:none;direction:ltr;block-progression:tb;writing-mode:lr-tb;baseline-shift:baseline;text-anchor:start;white-space:normal;clip-rule:nonzero;display:inline;overflow:visible;visibility:visible;opacity:1;isolation:auto;mix-blend-mode:normal;color-interpolation:sRGB;color-interpolation-filters:linearRGB;solid-color:#000000;solid-opacity:1;fill:#ffcc00;fill-opacity:1;fill-rule:nonzero;stroke:none;stroke-width:6;stroke-linecap:round;stroke-linejoin:round;stroke-miterlimit:4;stroke-dasharray:none;stroke-dashoffset:0;stroke-opacity:1;marker:none;color-rendering:auto;image-rendering:auto;shape-rendering:auto;text-rendering:auto;enable-background:accumulate"
     d="m 260,479.36133 c -12.69011,0 -23,10.30989 -23,23 l 0,60 c 0,12.69011 10.30989,23 23,23 l 125,0 0,-6 -125,0 c -1.66686,0 -3.26898,-0.24553 -4.78516,-0.68164 -0.84503,-0.99639 -1.16034,-2.3409 -0.81836,-3.61719 0.3707,-1.38346 1.44466,-2.45745 2.82813,-2.82812 0.0108,-0.003 0.0223,-0.003 0.0332,-0.006 a 4,4 0 0 0 1.02344,3.89062 4,4 0 0 0 5.6582,0 4,4 0 0 0 0.11719,-5.53125 4,4 0 0 0 -0.008,-0.008 2.0002,2.0002 0 0 0 -0.10938,-0.11719 4,4 0 0 0 -0.008,-0.01 2.0002,2.0002 0 0 0 -0.0137,-0.0117 c -0.0195,-0.0196 -0.0428,-0.0334 -0.0625,-0.0527 a 4,4 0 0 0 -0.26172,-0.23047 c -2.00334,-1.79721 -4.78464,-2.48853 -7.40234,-1.78711 -2.75764,0.73891 -4.91735,2.89862 -5.65625,5.65625 -0.20508,0.76537 -0.28191,1.54535 -0.25782,2.31641 -1.66579,-1.15312 -3.10679,-2.59581 -4.25976,-4.26172 0.77105,0.0241 1.55104,-0.0508 2.3164,-0.25586 2.75763,-0.7389 4.91734,-2.89861 5.65625,-5.65625 0.70142,-2.6177 0.0101,-5.399 -1.78711,-7.40234 a 4,4 0 0 0 -0.23046,-0.26367 c -0.0194,-0.0197 -0.0332,-0.043 -0.0527,-0.0625 a 2.0002,2.0002 0 0 0 -0.0117,-0.0117 4,4 0 0 0 -0.01,-0.008 2.0002,2.0002 0 0 0 -0.11719,-0.10938 4,4 0 0 0 -0.008,-0.008 4,4 0 0 0 -5.53125,0.11719 4,4 0 0 0 0,5.6582 4,4 0 0 0 3.89062,1.02148 c -0.003,0.0113 -0.003,0.0224 -0.006,0.0332 -0.37069,1.38347 -1.44465,2.45937 -2.82812,2.83007 -1.27654,0.34205 -2.62074,0.0251 -3.61719,-0.82031 C 243.24587,565.62888 243,564.02753 243,562.36133 l 0,-60 c 0,-1.6662 0.24587,-3.26755 0.68164,-4.78321 0.99645,-0.8454 2.34065,-1.16236 3.61719,-0.82031 1.38347,0.3707 2.45743,1.44661 2.82812,2.83008 0.003,0.0108 0.003,0.0219 0.006,0.0332 a 4,4 0 0 0 -3.89062,1.02149 4,4 0 0 0 0,5.6582 4,4 0 0 0 5.53125,0.11719 4,4 0 0 0 0.008,-0.008 2.0002,2.0002 0 0 0 0.11719,-0.10938 4,4 0 0 0 0.01,-0.008 2.0002,2.0002 0 0 0 0.0117,-0.0117 c 0.0195,-0.0195 0.0333,-0.0428 0.0527,-0.0625 a 4,4 0 0 0 0.23046,-0.26367 c 1.79724,-2.00334 2.48853,-4.78465 1.78711,-7.40235 -0.73891,-2.75764 -2.89862,-4.91735 -5.65625,-5.65625 -0.76536,-0.20508 -1.54535,-0.27994 -2.3164,-0.25586 1.15297,-1.6659 2.59397,-3.10859 4.25976,-4.26171 -0.0241,0.77105 0.0527,1.55104 0.25782,2.3164 0.7389,2.75763 2.89861,4.91734 5.65625,5.65625 2.6177,0.70142 5.399,0.0101 7.40234,-1.78711 a 4,4 0 0 0 0.26172,-0.23047 c 0.0197,-0.0193 0.043,-0.0331 0.0625,-0.0527 a 2.0002,2.0002 0 0 0 0.0137,-0.0117 4,4 0 0 0 0.008,-0.01 2.0002,2.0002 0 0 0 0.10938,-0.11719 4,4 0 0 0 0.008,-0.008 4,4 0 0 0 -0.11719,-5.53125 4,4 0 0 0 -5.6582,0 4,4 0 0 0 -1.02344,3.89062 c -0.0109,-0.003 -0.0224,-0.003 -0.0332,-0.006 -1.38347,-0.37069 -2.45743,-1.44466 -2.82813,-2.82812 -0.34198,-1.27629 -0.0267,-2.6208 0.81836,-3.61719 1.51618,-0.43611 3.1183,-0.68164 4.78516,-0.68164 l 260,0 c 1.66686,0 3.26898,0.24553 4.78516,0.68164 0.84503,0.99639 1.16034,2.3409 0.81836,3.61719 -0.3707,1.38346 -1.44466,2.45743 -2.82813,2.82812 -0.0108,0.003 -0.0223,0.003 -0.0332,0.006 a 4,4 0 0 0 -1.02344,-3.89062 4,4 0 0 0 -5.6582,0 4,4 0 0 0 -0.11719,5.53125 4,4 0 0 0 0.008,0.008 2.0002,2.0002 0 0 0 0.10938,0.11719 4,4 0 0 0 0.008,0.01 2.0002,2.0002 0 0 0 0.0137,0.0117 c 0.0195,0.0196 0.0428,0.0334 0.0625,0.0527 a 4,4 0 0 0 0.26172,0.23047 c 2.00334,1.79721 4.78464,2.48853 7.40234,1.78711 2.75764,-0.73891 4.91735,-2.89862 5.65625,-5.65625 0.20508,-0.76536 0.28191,-1.54535 0.25782,-2.3164 1.66579,1.15312 3.10679,2.59581 4.25976,4.26171 -0.77105,-0.0241 -1.55104,0.0508 -2.3164,0.25586 -2.75763,0.7389 -4.91734,2.89861 -5.65625,5.65625 -0.70142,2.6177 -0.0101,5.39901 1.78711,7.40235 a 4,4 0 0 0 0.23046,0.26367 c 0.0194,0.0197 0.0332,0.043 0.0527,0.0625 a 2.0002,2.0002 0 0 0 0.0117,0.0117 4,4 0 0 0 0.01,0.008 2.0002,2.0002 0 0 0 0.11719,0.10938 4,4 0 0 0 0.008,0.008 4,4 0 0 0 5.53125,-0.11719 4,4 0 0 0 0,-5.6582 4,4 0 0 0 -3.89062,-1.02149 c 0.003,-0.0113 0.003,-0.0224 0.006,-0.0332 0.37069,-1.38347 1.44465,-2.45938 2.82812,-2.83008 1.27654,-0.34205 2.62074,-0.0251 3.61719,0.82031 0.43577,1.51565 0.68164,3.11701 0.68164,4.78321 l 0,60 c 0,1.6662 -0.24587,3.26755 -0.68164,4.7832 -0.99645,0.84541 -2.34065,1.16236 -3.61719,0.82031 -1.38347,-0.3707 -2.45743,-1.4466 -2.82812,-2.83007 -0.003,-0.0108 -0.003,-0.0219 -0.006,-0.0332 a 4,4 0 0 0 3.89062,-1.02148 4,4 0 0 0 0,-5.6582 4,4 0 0 0 -5.53125,-0.11719 4,4 0 0 0 -0.008,0.008 2.0002,2.0002 0 0 0 -0.11719,0.10938 4,4 0 0 0 -0.01,0.008 2.0002,2.0002 0 0 0 -0.0117,0.0117 c -0.0195,0.0195 -0.0333,0.0428 -0.0527,0.0625 a 4,4 0 0 0 -0.23046,0.26367 c -1.79724,2.00334 -2.48853,4.78464 -1.78711,7.40234 0.73891,2.75764 2.89862,4.91735 5.65625,5.65625 0.76536,0.20508 1.54535,0.27995 2.3164,0.25586 -1.15297,1.66591 -2.59397,3.1086 -4.25976,4.26172 0.0241,-0.77106 -0.0527,-1.55104 -0.25782,-2.31641 -0.7389,-2.75763 -2.89861,-4.91734 -5.65625,-5.65625 -2.6177,-0.70142 -5.399,-0.0101 -7.40234,1.78711 a 4,4 0 0 0 -0.26172,0.23047 c -0.0197,0.0193 -0.043,0.0331 -0.0625,0.0527 a 2.0002,2.0002 0 0 0 -0.0137,0.0117 4,4 0 0 0 -0.008,0.01 2.0002,2.0002 0 0 0 -0.10938,0.11719 4,4 0 0 0 -0.008,0.008 4,4 0 0 0 0.11719,5.53125 4,4 0 0 0 5.6582,0 4,4 0 0 0 1.02344,-3.89062 c 0.0109,0.003 0.0224,0.003 0.0332,0.006 1.38347,0.37067 2.45743,1.44466 2.82813,2.82812 0.34198,1.27629 0.0267,2.6208 -0.81836,3.61719 -1.51618,0.43611 -3.1183,0.68164 -4.78516,0.68164 l -125,0 0,6 125,0 c 12.69011,0 23,-10.30989 23,-23 l 0,-60 c 0,-12.69011 -10.30989,-23 -23,-23 l -260,0 z"
     id="rect4140" />
</svg>
